<svg width="70" height="20" viewBox="0 0 70 20" fill="none" xmlns="http://www.w3.org/2000/svg">
<path d="M7.476 3.506C9.23067 5.31667 11.2467 6.74 13.524 7.776L12.866 8.966C12.1473 8.62067 11.494 8.26133 10.906 7.888V9.148H7.672V11.248H11.606V12.536H7.672V14.748H12.88V16.05H1.134V14.748H6.328V12.536H2.38V11.248H6.328V9.148H3.094V7.888C2.49667 8.252 1.82467 8.62067 1.078 8.994L0.434 7.832C2.87 6.66533 4.9 5.22333 6.524 3.506H7.476ZM10.878 7.874C9.422 6.978 8.12933 5.92333 7 4.71C5.95467 5.858 4.662 6.91267 3.122 7.874H10.878ZM21.988 4.15H26.692V5.102C26.272 6.53933 25.824 7.86933 25.348 9.092C26.3373 10.5013 26.8367 11.6447 26.846 12.522C26.846 13.3247 26.6733 13.8893 26.328 14.216C25.9453 14.5427 25.194 14.706 24.074 14.706L23.682 13.376C24.158 13.432 24.5593 13.46 24.886 13.46C25.2033 13.432 25.404 13.3573 25.488 13.236C25.5627 13.1333 25.6093 12.8953 25.628 12.522C25.6093 11.6447 25.0773 10.5013 24.032 9.092C24.48 8.056 24.914 6.80067 25.334 5.326H23.262V16.456H21.988V4.15ZM14.638 4.766H17.284C17.172 4.35533 17.046 3.97733 16.906 3.632L18.264 3.408C18.376 3.772 18.4927 4.22467 18.614 4.766H21.274V6.026H14.638V4.766ZM14.372 8.588H16.094C15.8887 7.95333 15.6367 7.36533 15.338 6.824L16.542 6.39C16.822 7.01533 17.088 7.748 17.34 8.588H18.614C18.9593 7.85067 19.2533 7.09 19.496 6.306L20.714 6.726C20.4433 7.47267 20.182 8.09333 19.93 8.588H21.358V9.862H14.372V8.588ZM20.784 10.87V16.19H19.51V15.518H16.36V16.218H15.072V10.87H20.784ZM16.36 14.286H19.51V12.074H16.36V14.286ZM32.804 4.08H40.476V5.326H37.27V10.31H40.896V11.57H37.27V16.442H35.982V11.57H32.412V10.31H35.982V5.326H32.804V4.08ZM40.182 6.18C39.902 7.524 39.538 8.7 39.09 9.708L37.97 9.316C38.362 8.40133 38.712 7.25333 39.02 5.872L40.182 6.18ZM34.092 5.928C34.456 6.88933 34.8013 8.06533 35.128 9.456L33.994 9.736C33.7327 8.56 33.3873 7.412 32.958 6.292L34.092 5.928ZM29.822 3.632C30.746 4.332 31.516 5.02267 32.132 5.704L31.222 6.628C30.6433 5.94667 29.8687 5.25133 28.898 4.542L29.822 3.632ZM27.932 7.692H31.166V13.586C31.4367 13.3433 31.8427 12.956 32.384 12.424L32.748 13.824C31.9173 14.6453 31.0167 15.3827 30.046 16.036L29.542 14.832C29.7753 14.6267 29.892 14.3887 29.892 14.118V8.966H27.932V7.692ZM50.69 3.506C51.474 5.19533 52.8227 6.684 54.736 7.972L54.008 9.092C52.2533 7.916 50.9513 6.46933 50.102 4.752C49.0753 6.684 47.7967 8.16333 46.266 9.19L45.538 8.07C47.2647 6.87533 48.5853 5.354 49.5 3.506H50.69ZM49.066 16.204C48.0113 16.204 47.484 15.6347 47.484 14.496V8.518H48.8V10.814C50.1067 10.3193 51.348 9.64267 52.524 8.784L53.28 9.848C51.74 10.828 50.2467 11.5887 48.8 12.13V14.23C48.8 14.7153 49.024 14.958 49.472 14.958H51.894C52.2393 14.958 52.5007 14.8553 52.678 14.65C52.902 14.426 53.042 13.7587 53.098 12.648L54.344 13.054C54.2133 14.5847 53.9707 15.4947 53.616 15.784C53.2987 16.064 52.804 16.204 52.132 16.204H49.066ZM43.452 3.632C44.376 4.332 45.146 5.02267 45.762 5.704L44.852 6.628C44.2733 5.94667 43.4987 5.25133 42.528 4.542L43.452 3.632ZM41.646 7.692H44.81V13.656C45.118 13.3853 45.5847 12.956 46.21 12.368L46.546 13.698C45.6967 14.5193 44.7353 15.2987 43.662 16.036L43.158 14.846C43.4007 14.65 43.522 14.4073 43.522 14.118V8.966H41.646V7.692Z" fill="#818181"/>
<path d="M61.25 13.5L64.75 10L61.25 6.5" stroke="#818181" stroke-width="2" stroke-linecap="round" stroke-linejoin="round"/>
</svg>
