<svg width="36" height="30" viewBox="0 0 36 30" fill="none" xmlns="http://www.w3.org/2000/svg">
<path d="M32.2478 12.1485C32.2478 8.38822 29.1995 5.33993 25.4393 5.33993C23.7161 5.33993 22.1424 5.98008 20.9431 7.03554C19.1822 5.2699 16.7467 4.17736 14.0561 4.17736C8.68427 4.17736 4.32956 8.53207 4.32956 13.9039C4.32956 14.877 4.47247 15.8168 4.73844 16.7033C1.99037 17.5793 0 20.153 0 23.1914C0 26.9517 3.0483 30 6.80856 30C7.89076 30 8.91399 29.7475 9.82255 29.2982L28.5694 18.1964C30.7547 17.0631 32.2478 14.7802 32.2478 12.1485Z" fill="#00A0E9"/>
<path d="M15.5597 2.32821C17.6306 2.58637 19.5224 3.42133 21.0692 4.66725C22.379 3.83039 23.9352 3.34535 25.6048 3.34535C29.4117 3.34535 32.6295 5.86725 33.6789 9.33153C34.5107 8.389 35.0154 7.15095 35.0154 5.79502C35.0154 2.84203 32.6215 0.448153 29.6685 0.448153C28.2045 0.448153 26.8779 1.03657 25.9123 1.98981C24.6054 0.756214 22.843 0 20.904 0C18.7934 0 16.8921 0.895928 15.5597 2.32821Z" fill="#00A0E9"/>
</svg>
