<svg width="24" height="24" viewBox="0 0 24 24" fill="none" xmlns="http://www.w3.org/2000/svg">
<rect y="24" width="24" height="24" rx="2" transform="rotate(-90 0 24)" fill="#00A0E9" fill-opacity="0.15"/>
<path d="M19 12L12 5L15 2L22 9L19 12Z" stroke="#00A0E9" stroke-width="2" stroke-linecap="round" stroke-linejoin="round"/>
<path d="M13 6L5.5 7.5L2 22L16.5 18.5L18 11L13 6Z" stroke="#00A0E9" stroke-width="2" stroke-linecap="round" stroke-linejoin="round"/>
<path d="M2 22L9.586 14.414" stroke="#00A0E9" stroke-width="2" stroke-linecap="round" stroke-linejoin="round"/>
<path d="M13 13C13 11.8954 12.1046 11 11 11C9.89543 11 9 11.8954 9 13C9 14.1046 9.89543 15 11 15C12.1046 15 13 14.1046 13 13Z" stroke="#00A0E9" stroke-width="2" stroke-linecap="round" stroke-linejoin="round"/>
</svg>
