<svg width="20" height="20" viewBox="0 0 20 20" fill="none" xmlns="http://www.w3.org/2000/svg">
<g opacity="0.9">
<path d="M10.0002 7.50032C10.165 7.50032 10.3261 7.5492 10.4631 7.64077C10.6002 7.73233 10.707 7.86248 10.7701 8.01476C10.8331 8.16703 10.8496 8.33458 10.8175 8.49623C10.7853 8.65788 10.706 8.80637 10.5894 8.92291C10.4729 9.03946 10.3244 9.11882 10.1627 9.15098C10.0011 9.18313 9.83353 9.16663 9.68126 9.10356C9.52899 9.04048 9.39884 8.93367 9.30727 8.79663C9.2157 8.65959 9.16683 8.49848 9.16683 8.33366C9.16683 8.11264 9.25463 7.90068 9.41091 7.7444C9.56719 7.58812 9.77915 7.50032 10.0002 7.50032ZM4.16683 1.66699H15.8335C16.4965 1.66699 17.1324 1.93038 17.6013 2.39923C18.0701 2.86807 18.3335 3.50395 18.3335 4.16699V12.5003C18.3335 13.1634 18.0701 13.7993 17.6013 14.2681C17.1324 14.7369 16.4965 15.0003 15.8335 15.0003H6.17516L3.09183 18.092C3.01396 18.1692 2.92162 18.2303 2.82008 18.2718C2.71855 18.3133 2.60983 18.3343 2.50016 18.3337C2.39085 18.3365 2.2824 18.3136 2.1835 18.267C2.03131 18.2045 1.90104 18.0983 1.8091 17.9619C1.71715 17.8254 1.66765 17.6648 1.66683 17.5003V4.16699C1.66683 3.50395 1.93022 2.86807 2.39906 2.39923C2.8679 1.93038 3.50379 1.66699 4.16683 1.66699ZM3.3335 15.492L5.24183 13.5753C5.3197 13.4981 5.41204 13.437 5.51357 13.3955C5.6151 13.354 5.72382 13.333 5.8335 13.3337H15.8335C16.0545 13.3337 16.2665 13.2459 16.4228 13.0896C16.579 12.9333 16.6668 12.7213 16.6668 12.5003V4.16699C16.6668 3.94598 16.579 3.73402 16.4228 3.57774C16.2665 3.42146 16.0545 3.33366 15.8335 3.33366H4.16683C3.94581 3.33366 3.73385 3.42146 3.57757 3.57774C3.42129 3.73402 3.3335 3.94598 3.3335 4.16699V15.492ZM13.3335 7.50032C13.4983 7.50032 13.6594 7.5492 13.7965 7.64077C13.9335 7.73233 14.0403 7.86248 14.1034 8.01476C14.1665 8.16703 14.183 8.33458 14.1508 8.49623C14.1187 8.65788 14.0393 8.80637 13.9228 8.92291C13.8062 9.03946 13.6577 9.11882 13.4961 9.15098C13.3344 9.18313 13.1669 9.16663 13.0146 9.10356C12.8623 9.04048 12.7322 8.93367 12.6406 8.79663C12.549 8.65959 12.5002 8.49848 12.5002 8.33366C12.5002 8.11264 12.588 7.90068 12.7442 7.7444C12.9005 7.58812 13.1125 7.50032 13.3335 7.50032ZM6.66683 7.50032C6.83165 7.50032 6.99276 7.5492 7.1298 7.64077C7.26685 7.73233 7.37366 7.86248 7.43673 8.01476C7.4998 8.16703 7.5163 8.33458 7.48415 8.49623C7.452 8.65788 7.37263 8.80637 7.25608 8.92291C7.13954 9.03946 6.99105 9.11882 6.8294 9.15098C6.66775 9.18313 6.5002 9.16663 6.34793 9.10356C6.19565 9.04048 6.0655 8.93367 5.97394 8.79663C5.88237 8.65959 5.8335 8.49848 5.8335 8.33366C5.8335 8.11264 5.92129 7.90068 6.07757 7.7444C6.23385 7.58812 6.44582 7.50032 6.66683 7.50032Z" fill="#2A2A2A"/>
</g>
</svg>
