<svg width="20" height="20" viewBox="0 0 20 20" fill="none" xmlns="http://www.w3.org/2000/svg">
<g opacity="0.9">
<path d="M17.7498 8.40036C17.5157 8.11924 17.2227 7.89293 16.8915 7.73742C16.5603 7.58191 16.199 7.50099 15.8332 7.50036H12.0332L12.4998 6.3087C12.6939 5.78693 12.7586 5.22587 12.6882 4.67363C12.6179 4.12139 12.4146 3.59447 12.0958 3.13805C11.7771 2.68164 11.3524 2.30936 10.8581 2.05315C10.3639 1.79694 9.81487 1.66444 9.25817 1.66703C9.09787 1.66736 8.94107 1.71393 8.80656 1.80113C8.67206 1.88834 8.56556 2.01249 8.49984 2.1587L6.12484 7.50036H4.1665C3.50346 7.50036 2.86758 7.76375 2.39874 8.2326C1.9299 8.70144 1.6665 9.33732 1.6665 10.0004V15.8337C1.6665 16.4967 1.9299 17.1326 2.39874 17.6015C2.86758 18.0703 3.50346 18.3337 4.1665 18.3337H14.7748C15.3597 18.3335 15.9259 18.1283 16.3751 17.7537C16.8243 17.3792 17.1279 16.859 17.2332 16.2837L18.2915 10.4504C18.357 10.0898 18.3424 9.71935 18.2488 9.36509C18.1552 9.01084 17.9848 8.68149 17.7498 8.40036V8.40036ZM5.83317 16.667H4.1665C3.94549 16.667 3.73353 16.5792 3.57725 16.423C3.42097 16.2667 3.33317 16.0547 3.33317 15.8337V10.0004C3.33317 9.77935 3.42097 9.56739 3.57725 9.41111C3.73353 9.25483 3.94549 9.16703 4.1665 9.16703H5.83317V16.667ZM16.6665 10.1504L15.6082 15.9837C15.5727 16.1778 15.4694 16.3531 15.3168 16.4782C15.1642 16.6033 14.9722 16.6702 14.7748 16.667H7.49984V8.5087L9.7665 3.4087C9.99982 3.47672 10.2165 3.59237 10.4029 3.74835C10.5893 3.90433 10.7413 4.09725 10.8493 4.31494C10.9574 4.53263 11.0192 4.77035 11.0307 5.01311C11.0423 5.25587 11.0034 5.49839 10.9165 5.72536L10.4748 6.91703C10.3807 7.16891 10.349 7.43982 10.3822 7.70664C10.4155 7.97346 10.5129 8.22827 10.6659 8.44931C10.819 8.67036 11.0233 8.85108 11.2614 8.97606C11.4995 9.10104 11.7643 9.16656 12.0332 9.16703H15.8332C15.9556 9.16683 16.0766 9.19361 16.1875 9.24546C16.2984 9.29731 16.3965 9.37296 16.4748 9.46703C16.5551 9.5598 16.6139 9.66915 16.6471 9.78727C16.6802 9.90539 16.6868 10.0294 16.6665 10.1504Z" fill="#2A2A2A"/>
</g>
</svg>
